<?xml version="1.0" encoding="utf-8"?>
<!-- Generator: Adobe Illustrator 19.2.0, SVG Export Plug-In . SVG Version: 6.00 Build 0)  -->
<svg version="1.1" id="Layer_1" xmlns="http://www.w3.org/2000/svg" xmlns:xlink="http://www.w3.org/1999/xlink" x="0px" y="0px"
	 viewBox="0 0 159.3 158.5" style="enable-background:new 0 0 159.3 158.5;" xml:space="preserve">
<style type="text/css">
	.st0{fill:#E84B24;}
</style>
<path class="st0" d="M145.5,98.8c-8,0.1-13.8-5.4-13.9-13.1c-0.1-7.8,5.4-13.6,13.3-13.7c8-0.1,14.4,5.8,14.4,13.4
	C159.4,92.6,153.1,98.7,145.5,98.8z"/>
<path class="st0" d="M130.8,46.8c-7.6,0-13.5-5.7-13.6-13c0-7.1,6.2-13.3,13.4-13.5c7.4-0.2,13.8,6.2,13.7,13.6
	C144.3,41.2,138.4,46.8,130.8,46.8z"/>
<path class="st0" d="M13.5,84.6C6.2,84.5,0,78.5,0,71.4C0,64.2,6.4,58,13.9,58.1c7.3,0.1,13.4,6,13.4,13.2
	C27.4,78.7,21.1,84.7,13.5,84.6z"/>
<path class="st0" d="M44.8,143.2c0-7.5,5.6-13.1,13.2-13.2c7.7-0.1,13.4,5.4,13.5,12.9c0.1,7.7-5.8,13.7-13.4,13.6
	C50.7,156.5,44.8,150.6,44.8,143.2z"/>
<path class="st0" d="M100.8,27.7c-7.7-0.1-13.2-5.6-13.1-13.2c0.1-7.4,6.1-13.3,13.5-13.1c7.3,0.1,13.3,6.2,13.2,13.5
	C114.3,22.3,108.5,27.7,100.8,27.7z"/>
<path class="st0" d="M39.8,36.6c-7.5,0-13.1-5.4-13.2-12.7c-0.1-7.7,5.4-13.2,13.1-13.2c7.6,0,13.6,5.9,13.5,13.1
	C53.1,30.9,47.1,36.6,39.8,36.6z"/>
<path class="st0" d="M28.7,138.7c-7,0-12.6-5.2-12.7-11.9c-0.1-6.8,5.9-12.7,12.8-12.6c6.7,0.1,12.6,5.9,12.6,12.4
	C41.3,133.2,35.6,138.6,28.7,138.7z"/>
<path class="st0" d="M136.5,105.9c7,0,12.6,5.4,12.6,12.1c0,6.5-5.8,12.4-12.5,12.5c-6.9,0.1-12.8-5.8-12.7-12.6
	C124,111,129.4,105.9,136.5,105.9z"/>
<path class="st0" d="M102.5,147.2c-0.1,6.2-5.2,11.3-11.5,11.3c-6.3,0-11.8-5.5-11.7-11.8c0.1-6.2,5.3-11.2,11.7-11.2
	C97.5,135.5,102.6,140.6,102.5,147.2z"/>
<path class="st0" d="M69.4,0c6.5,0.1,11.2,5,11.1,11.5c-0.2,6-5.4,11-11.4,10.9c-6.3,0-11.3-5.1-11.2-11.5C57.9,4.4,62.6-0.1,69.4,0
	z"/>
<path class="st0" d="M136.7,57.3c0-5.7,4-9.5,9.9-9.5c5.7,0,9.8,4.1,9.8,9.7c0,5.4-4.6,9.8-9.9,9.7
	C140.9,67.2,136.7,62.9,136.7,57.3z"/>
<path class="st0" d="M17.9,52.9c-5.4,0-9.7-4-9.9-9.2c-0.1-5.2,4.5-9.7,10-9.6c5.4,0.1,9.4,4.1,9.4,9.5
	C27.5,49.1,23.6,52.9,17.9,52.9z"/>
<path class="st0" d="M109.8,139.3c0-5.1,4.2-9.2,9.2-9.1c5,0,9.3,4.3,9.3,9.2c0.1,5.2-4.2,9.4-9.6,9.3
	C113.5,148.5,109.7,144.6,109.8,139.3z"/>
<path class="st0" d="M2.7,101.9c0-5.1,3.5-8.7,8.7-8.8c5.2-0.1,8.9,3.5,9,8.5c0.1,5.3-3.7,9.1-9,9.1C6.3,110.6,2.7,107,2.7,101.9z"
	/>
</svg>
