<?xml version="1.0" encoding="UTF-8"?>
<svg width="138px" height="93px" viewBox="0 0 138 93" version="1.1" xmlns="http://www.w3.org/2000/svg" xmlns:xlink="http://www.w3.org/1999/xlink">
    <!-- Generator: Sketch 46.2 (44496) - http://www.bohemiancoding.com/sketch -->
    <title>logo</title>
    <desc>Created with Sketch.</desc>
    <defs></defs>
    <g id="Page-1" stroke="none" stroke-width="1" fill="none" fill-rule="evenodd">
        <g id="logo" fill-rule="nonzero" fill="#033F63">
            <path d="M50.491128,16.839215 C52.13475,16.119642 53.926024,16.790552 54.627769,18.388649 C55.470945,20.308639 54.560563,22.723035 52.676606,23.563667 C50.938495,24.339082 49.185538,23.689313 48.470353,22.00446 C47.667299,20.112391 48.628837,17.654517 50.491128,16.839215 Z M96.357828,63.708987 C95.001884,63.985607 93.657576,64.359155 92.28779,64.5205 C88.27874,64.992969 85.095613,63.408434 83.512374,60.255518 C81.954614,57.153259 82.711126,53.148344 85.393724,50.384731 C88.120857,47.575248 91.601293,46.323575 95.365395,45.705317 C99.360804,45.049166 103.386305,45.23225 107.407594,45.364278 C107.941024,45.381828 108.474253,45.404365 109.034365,45.425705 C110.389506,41.964258 111.02585,38.432211 110.774683,34.749587 C110.042847,35.318784 109.383432,36.007842 108.58118,36.425266 C104.904946,38.338076 101.54548,37.090591 100.053521,33.22987 C99.653298,32.194188 99.417778,31.02927 99.40835,29.920993 C99.346761,22.647089 99.345959,15.372388 99.394708,8.098284 C99.399723,7.342614 99.724716,6.502979 100.1448,5.859592 C100.605207,5.154579 101.465436,5.00161 102.288752,5.283216 C103.048473,5.543284 103.483603,6.128036 103.50246,6.930176 C103.557027,9.258216 103.592335,11.587054 103.610992,13.915692 C103.653321,19.237098 103.661747,24.558703 103.73136,29.87971 C103.745603,30.968043 103.753026,32.244845 105.051996,32.669848 C106.46732,33.132943 107.664579,32.457247 108.634944,31.460256 C109.963404,30.095502 110.450693,28.330276 110.543376,26.524364 C110.706073,23.351106 110.732153,20.169072 110.738171,16.990628 C110.747199,12.32996 110.68862,7.669094 110.658127,3.008426 C110.650303,1.813792 110.866564,0.730844 112.119593,0.187176 C113.266096,-0.310422 114.400162,0.213302 114.737192,1.411725 C114.838301,1.771113 114.889658,2.156228 114.890861,2.529775 C114.924364,14.11872 115.039315,25.708862 114.91012,37.296212 C114.878223,40.153161 114.046481,43.001137 113.574639,45.901165 C118.154835,46.137699 122.97657,46.16901 127.498187,44.177622 C130.950135,42.657305 133.304329,40.1039 133.578567,36.163603 C133.650587,35.130913 133.34385,34.053948 133.102914,33.022255 C132.790559,31.685621 133.194795,30.723332 134.393859,30.264625 C135.551998,29.821873 136.600402,30.293145 137.140853,31.564562 C138.383651,34.487526 138.208315,37.42804 137.063216,40.317299 C135.56263,44.10363 132.758461,46.611164 129.038093,48.201284 C124.134107,50.297378 118.975142,50.357408 113.799727,50.015173 C112.235146,49.911664 111.437508,50.269855 110.654917,51.679284 C108.376354,55.784317 105.090513,58.990283 101.017868,61.381745 C100.776129,61.523744 100.565285,61.717997 100.340197,61.887918 C99.012741,62.495008 97.685284,63.101898 96.357828,63.708987 Z M107.032849,49.555468 C103.009354,49.334491 99.180253,49.163572 95.402508,49.992237 C92.808181,50.561234 90.338835,51.450528 88.477948,53.482004 C87.121804,54.962632 86.720578,56.974962 87.454421,58.465761 C88.133897,59.846471 89.762273,60.543108 91.881549,60.359226 C92.03903,60.345465 92.198518,60.338883 92.35319,60.309566 C98.910227,59.06587 103.389716,55.025056 107.032849,49.555468 Z M39.890374,63.53033 C39.535088,63.989437 39.177596,64.446748 38.824717,64.907649 C34.99341,69.912946 29.980491,73.098968 23.760083,74.202259 C17.009253,75.399287 11.321272,73.179342 6.625523,68.341175 C2.640545,64.235344 0.845059,59.14389 0.236399,53.590738 C-0.448695,47.342743 0.365794,41.256094 2.543047,35.3627 C5.168871,28.25413 9.480246,22.407006 15.997562,18.376164 C20.383364,15.663807 25.135285,13.941659 30.430867,14.543364 C34.382543,14.992299 37.739601,16.590994 39.604701,20.28319 C41.629689,24.291695 41.362874,28.33949 38.944283,32.084537 C36.654887,35.629548 33.198124,37.228642 28.974015,37.007266 C24.370749,36.765946 21.03656,31.977239 22.365621,27.5904 C22.506251,27.126906 22.798344,26.682758 23.109896,26.30223 C23.621258,25.677191 24.32541,25.518439 25.085734,25.78748 C25.887584,26.071081 26.124909,26.76353 26.181482,27.515013 C26.214182,27.950187 26.14477,28.394933 26.10224,28.833498 C25.879158,31.126437 27.370315,32.815278 29.693013,32.89246 C33.284788,33.011924 36.478949,29.975879 36.662309,26.268126 C36.882181,21.821456 34.178519,18.890315 29.496612,18.579591 C26.136745,18.356619 23.031456,19.294376 20.101102,20.852785 C11.291983,25.537784 6.74589,33.198997 4.839665,42.648969 C3.913435,47.24083 3.914237,51.853433 4.999955,56.432131 C6.100318,61.072655 8.335147,65.034691 12.385925,67.734683 C17.745904,71.307616 23.277809,71.023816 28.758758,68.013897 C34.794803,64.699037 37.893873,59.305834 39.357144,52.806348 C40.076543,49.610952 40.0954,46.366693 40.11827,43.119643 C40.126295,41.991222 40.302834,40.91685 41.193957,40.093968 C42.309366,39.063871 43.624986,39.404112 44.063125,40.847246 C44.135346,41.085175 44.183292,41.340655 44.184095,41.588357 C44.220004,51.822121 44.345187,62.057082 44.235853,72.289649 C44.186903,76.865954 43.220149,81.336557 40.808178,85.339079 C38.075829,89.873502 34.074803,92.597626 28.714623,92.978154 C23.305494,93.362072 19.155412,88.62861 20.030486,83.295836 C20.491695,80.485555 21.840417,78.286351 24.361922,76.86735 C24.77037,76.637398 25.220746,76.444142 25.676138,76.342628 C26.681811,76.11846 27.644152,76.581555 27.99382,77.38549 C28.340881,78.183242 28.025116,79.223311 27.233497,79.82342 C26.982129,80.013884 26.693848,80.155285 26.428437,80.328597 C24.313975,81.709107 23.603404,83.785057 24.500746,85.951553 C25.38224,88.079955 27.573736,89.150938 29.983099,88.609862 C33.176457,87.892683 35.480498,85.979474 37.146188,83.250364 C39.317222,79.693387 40.069521,75.746109 40.205738,71.66441 C40.289594,69.147702 40.220783,66.626007 40.214564,64.106706 C40.214163,63.956729 40.162204,63.806751 40.134119,63.656774 C40.05287,63.614693 39.971622,63.572412 39.890374,63.53033 Z M73.819535,24.365188 C74.731321,26.347802 75.133751,28.460249 75.182099,30.608795 C75.275785,34.7593 75.435072,38.92237 75.2152,43.061905 C75.034849,46.461526 73.980226,49.7002 71.70066,52.393611 C70.36538,53.971565 68.64733,54.933654 66.623345,55.342701 C63.190454,56.036347 60.169222,53.739219 59.748135,49.868725 C59.470086,47.312129 59.532878,44.715047 59.511613,42.135516 C59.468681,36.908245 59.457046,31.680775 59.476305,26.453504 C59.478712,25.783591 59.627968,25.061825 59.910833,24.457129 C60.362613,23.490652 61.447729,23.068442 62.382786,23.323324 C63.201689,23.546296 63.743143,24.291197 63.754578,25.370954 C63.787078,28.488171 63.778652,31.605786 63.79751,34.723401 C63.824392,39.194004 63.856891,43.664607 63.900625,48.135011 C63.904637,48.53987 63.983678,48.949316 64.070143,49.347394 C64.423623,50.974809 65.646961,51.553977 67.13892,50.791126 C68.979946,49.849779 69.982008,48.250884 70.594079,46.357021 C71.315282,44.126107 71.347381,41.827982 71.22621,39.523675 C71.0264,35.723982 70.851264,31.921297 70.543323,28.12978 C70.407107,26.45131 69.567542,25.032308 68.251721,23.901495 C67.162191,22.965133 67.020559,21.857255 67.766839,20.925281 C68.588951,19.898175 69.762136,19.806633 70.96762,20.660826 C72.301897,21.606162 73.187203,22.88835 73.819535,24.365188 Z M93.761795,15.330446 C94.654322,17.239666 95.051937,19.387414 95.102893,21.565278 C95.20019,25.715982 95.355465,29.880447 95.123556,34.018986 C94.932974,37.416014 93.87153,40.656483 91.572505,43.336332 C90.226993,44.904513 88.502724,45.860619 86.473323,46.246931 C83.064907,46.895304 80.096235,44.619516 79.663513,40.79589 C79.388473,38.365738 79.442438,35.894302 79.422577,33.440815 C79.379445,28.087699 79.366405,22.734184 79.388272,17.381068 C79.391281,16.681838 79.554179,15.927962 79.853293,15.297937 C80.29083,14.376135 81.354882,13.981248 82.263057,14.211399 C83.097005,14.422604 83.642673,15.152348 83.663336,16.2339 C83.702857,18.311446 83.702857,20.389989 83.707471,22.468134 C83.718705,27.569758 83.711684,32.671184 83.741575,37.772609 C83.74659,38.617229 83.834057,39.474215 83.999363,40.302481 C84.304294,41.831572 85.537663,42.431681 86.935334,41.740429 C89.350114,40.546393 90.479966,38.390269 90.805762,35.903676 C91.106481,33.608343 91.144798,31.25996 91.080802,28.940895 C90.990727,25.674299 90.752599,22.408502 90.473747,19.15108 C90.323689,17.396424 89.489138,15.928561 88.116544,14.755865 C87.044869,13.840245 86.939347,12.706639 87.725549,11.779252 C88.562707,10.791635 89.68273,10.707472 90.854511,11.53534 C92.188587,12.477884 93.085127,13.752692 93.761795,15.330446 Z M51.693161,64.685755 C50.317557,61.644923 49.898075,58.794555 49.892659,55.869198 C49.877011,47.556022 49.853339,39.242647 49.893863,30.929472 C49.897674,30.137104 50.168101,29.239633 50.606841,28.58428 C51.083498,27.872286 51.995284,27.761598 52.851099,28.045997 C53.716745,28.333586 54.08186,29.027631 54.131412,29.863675 C54.193,30.899556 54.180763,31.940423 54.17675,32.979296 C54.149066,40.379444 54.112554,47.779592 54.08487,55.17994 C54.075039,57.795569 54.420094,60.349573 55.752967,62.65747 C57.247133,65.244779 59.66131,65.619523 61.962141,63.674404 C62.444014,63.266952 62.869714,62.793287 63.354997,62.390422 C63.982114,61.869889 64.687469,61.6531 65.461234,62.083487 C66.243023,62.518262 66.554374,63.234245 66.44845,64.074078 C66.387464,64.557516 66.234396,65.105771 65.933677,65.471142 C63.887023,67.957735 61.320781,69.545461 57.988599,69.381922 C54.699949,69.220377 52.884401,67.041317 51.693161,64.685755 Z M119.306434,31.523996 C117.996632,32.106754 116.979524,31.846288 116.408178,30.896764 C115.762003,29.823189 115.892803,28.766766 116.999585,28.11939 C119.342144,26.74925 120.086217,24.566401 120.3751,22.101945 C120.49948,21.040935 120.52576,19.964568 120.71213,18.915524 C120.871818,18.016657 121.574565,17.44407 122.438606,17.415351 C123.022992,17.396006 123.679397,17.722685 124.19076,18.062528 C124.465199,18.244814 124.622078,18.780504 124.62589,19.158838 C124.665812,23.162158 123.939994,26.942506 121.175747,30.068697 C120.825276,30.46518 120.373094,30.775705 119.951205,31.104977 C119.703648,31.298033 119.422991,31.449407 119.306434,31.523996 Z M54.957516,77.122431 C54.761918,77.122431 54.564114,77.068383 54.387374,76.955302 C53.897477,76.641785 53.756045,75.992814 54.071408,75.505786 L54.996636,74.076813 C55.3122,73.589785 55.964794,73.448783 56.454691,73.762698 C56.944588,74.076414 57.086221,74.725186 56.770857,75.212413 L55.84563,76.641187 C55.643813,76.95251 55.304376,77.122431 54.957516,77.122431 Z M62.685431,79.971044 C62.131338,79.971044 61.666518,79.541654 61.633216,78.984424 L61.535517,77.348634 C61.501012,76.770263 61.944367,76.273862 62.526144,76.239359 C63.106719,76.206053 63.607248,76.645814 63.641754,77.224384 L63.739452,78.860175 C63.774158,79.438345 63.330603,79.934747 62.749026,79.969249 C62.727761,79.970446 62.706496,79.971044 62.685431,79.971044 Z M70.883042,76.90995 C70.603788,76.90995 70.325337,76.800658 70.117903,76.58347 L68.975412,75.387839 C68.574186,74.968022 68.591238,74.304092 69.013729,73.905216 C69.43622,73.506141 70.103861,73.523093 70.505287,73.94311 L71.647778,75.138741 C72.049005,75.558757 72.031952,76.222686 71.609461,76.621562 C71.405438,76.814419 71.143839,76.90995 70.883042,76.90995 Z M74.68185,69.126023 C74.635709,69.126023 74.588966,69.122832 74.542023,69.116849 L72.991083,68.912624 C72.413318,68.836439 72.007277,68.309125 72.083711,67.734943 C72.160144,67.160561 72.690966,66.758095 73.26813,66.832885 L74.819069,67.037109 C75.396634,67.113294 75.802876,67.640609 75.726442,68.214791 C75.656027,68.742304 75.202842,69.126023 74.68185,69.126023 Z M71.01665,61.668337 C70.648124,61.668337 70.290431,61.476079 70.096638,61.134242 C69.810564,60.629664 69.990113,59.990066 70.497664,59.705667 L71.925226,58.905721 C72.432978,58.621323 73.076344,58.800019 73.362217,59.304398 C73.648492,59.809176 73.468743,60.448773 72.961192,60.733172 L71.53363,61.532919 C71.369929,61.62466 71.192186,61.668337 71.01665,61.668337 Z" id="Shape"></path>
        </g>
    </g>
</svg>
